<?xml version="1.0" encoding="UTF-8" standalone="no"?><!DOCTYPE svg PUBLIC "-//W3C//DTD SVG 1.1//EN" "http://www.w3.org/Graphics/SVG/1.1/DTD/svg11.dtd"><svg width="100%" height="100%" viewBox="0 0 192 192" version="1.1" xmlns="http://www.w3.org/2000/svg" xmlns:xlink="http://www.w3.org/1999/xlink" xml:space="preserve" xmlns:serif="http://www.serif.com/" style="fill-rule:evenodd;clip-rule:evenodd;stroke-linejoin:round;stroke-miterlimit:2;"><g id="Background"><path d="M105.363,104.249c17.864,1.908 32.312,11.576 38.049,17.094c2.941,2.829 3.657,2.116 5.776,5.586c1.123,1.84 5.334,4.441 11.486,16.798c6.355,12.765 5.691,17.894 7.002,22.381c0.962,3.294 -0.488,9.99 -7.546,10.077c-27.721,0.344 -115.925,0.041 -126.006,0.006c-11.791,-0.041 -10.977,-4.442 -9.218,-16.101c0.127,-0.839 4.376,-20.107 18.437,-34.248c25.167,-25.308 51.973,-22.764 62.019,-21.594l-17.249,8.253c-17.204,3.492 -24.6,5.411 -40.709,21.909c-9.886,10.125 -16.614,32.766 -14.184,33.525c0.287,0.09 121.876,0.014 123.154,0.039c3.636,0.07 2.534,-1.824 1.183,-8.552c-1.491,-7.431 -7.559,-16.899 -8.427,-18.253c-13.129,-20.488 -31.482,-25.315 -39.94,-27.733c-5.575,-1.594 -19.392,-1.007 -21.078,-0.935l17.249,-8.253Z" style="fill:#fff;fill-opacity:0.99;"/><path d="M99.371,96.006c-15.681,-0.186 -21.41,-0.735 -35.362,-15.276c-2.77,-2.887 -7.336,-13.774 -7.605,-16.571c-1.082,-11.245 -2.832,-23.392 13.614,-39.147c6.502,-6.229 22.956,-11.285 32.291,-8.696c6.933,1.923 12.091,0.59 24.928,13.955c0.939,0.977 6.625,9.421 7.628,15.062c1.037,5.832 4.509,15.725 -4.43,31.706c-2.111,3.774 -11.878,16.174 -25.767,18.17c-2.704,0.389 -2.607,0.567 -5.297,0.798l-3.747,-8.258c27.774,0.217 46.814,-37.337 17.365,-58.308c-19.504,-13.889 -54.173,2.156 -47.806,33.891c0.669,3.333 7.007,23.021 30.441,24.417l3.747,8.258Z" style="fill:#fff;fill-opacity:0.99;"/></g></svg>