<?xml version="1.0" encoding="UTF-8" standalone="no"?><!DOCTYPE svg PUBLIC "-//W3C//DTD SVG 1.1//EN" "http://www.w3.org/Graphics/SVG/1.1/DTD/svg11.dtd"><svg width="100%" height="100%" viewBox="0 0 100 100" version="1.1" xmlns="http://www.w3.org/2000/svg" xmlns:xlink="http://www.w3.org/1999/xlink" xml:space="preserve" xmlns:serif="http://www.serif.com/" style="fill-rule:evenodd;clip-rule:evenodd;stroke-linejoin:round;stroke-miterlimit:2;"><g id="Background"><path d="M33.5,0l14,-0c0.458,0.418 -0.244,1.217 1.926,1.755c0.089,0.022 0.574,0.142 1.148,-0c2.169,-0.538 1.468,-1.337 1.926,-1.754l14,0c4.357,3.077 4.986,2.059 8.716,5.787c4.177,4.175 3.09,5.494 7.18,6.97c19.383,6.993 13.148,30.586 11.549,33.939c-2.34,4.909 1.258,4.63 1.856,8.75c1.835,12.645 -5.706,15.9 -6.143,16.255c-4.122,3.353 -0.853,4.513 -1.85,10.86c-0.569,3.623 -7.834,7.09 -9.264,7.229c-3.843,0.374 -4.012,0.355 -6.389,3.435c-3.948,5.116 -6.8,5.157 -7.406,5.731c-0.259,0.246 0.008,0.796 -0.251,1.042l-12,0c-1.34,-2.582 -1.534,-4.123 -3.819,-2.275c-1.535,1.242 -1.001,1.928 -1.181,2.275l-14,-0c-7.445,-5.411 -5.975,-7.424 -9.053,-8.099c-18.098,-3.971 -10.493,-17.444 -12.295,-19.01c-1.438,-1.25 -12.236,-5.985 -6.686,-20.407c1.098,-2.854 1.949,-3.005 0.32,-6.119c-0.177,-0.337 -4.471,-13.617 0.259,-23.079c6.457,-12.918 12.212,-7.611 15.395,-13.821c1.982,-3.868 9.313,-7.522 12.061,-9.462l-13.987,41.996c7.508,0.183 7.844,-0.793 14.239,3.049c6.838,4.108 0.224,5.957 -0.995,5.112c-14.943,-10.365 -23.548,4.235 -23.837,7.393c-1.233,13.437 12.596,10.066 9.299,15.81c-7.423,12.932 11.248,13.452 12.32,16.122c0.448,1.116 3.42,8.52 14.079,5.254c3.387,-1.038 3.351,-11.22 3.347,-12.234c-0.129,-36.552 1.487,-36.5 -0.822,-72.983c-0.587,-9.273 -17.901,-3.74 -21.215,2.227c-2.179,3.924 -2.27,3.992 -6.536,5.491c-10.412,3.66 -12.184,15.654 -9.825,24.239c1.613,5.87 3.921,1.398 9.945,0.521l13.987,-41.996l41.992,60.011c-8.384,0.035 -4.253,-4.004 -3.854,-4.228c2.885,-1.621 14.02,2.745 19.126,-15.186c1.914,-6.721 -0.683,-18.415 -6.51,-21.659c-4.83,-2.689 -7.454,-1.696 -9.474,-5.582c-5.417,-10.418 -21.439,-11.51 -21.925,-3.838c-2.211,34.925 -0.113,41.929 -0.887,77.98c-0.314,14.643 22.134,4.461 14.689,0.723c-10.129,-5.085 -6.769,-22.289 -2.44,-14.583c0.672,1.196 -0.239,6.132 5.449,10.646c3.161,2.508 18.589,0.758 12.113,-10.921c-2.36,-4.257 2.186,-2.595 7.561,-8.011c2.675,-2.696 3.719,-14.324 -2.125,-9.191c-3.371,2.961 -10.743,3.745 -11.724,3.85l-41.992,-60.011Z" style="fill:#fff;fill-opacity:0.97;"/><path d="M78.51,40.004c-1.139,-0.159 -8.087,-1.125 -12.669,-6.791c-4.199,-5.19 -0.104,-15.124 2.73,-6.74c3.501,10.362 11.33,7.925 13.791,9.309c0.398,0.224 4.537,4.275 -3.851,4.222Z" style="fill:#fff;fill-opacity:0.97;"/><path d="M36.003,74.511c0.058,8.39 -3.997,4.249 -4.222,3.851c-2.096,-3.713 1.858,-7.155 -6.01,-12.206c-1.853,-1.19 -8.968,-2.66 -6.193,-5.582c1.225,-1.29 7.804,-0.564 11.632,3.218c4.628,4.572 4.529,8.841 4.793,10.719Z" style="fill:#fff;fill-opacity:0.97;"/><path d="M29.488,32.001c-8.391,0.062 -4.248,-3.996 -3.85,-4.22c3.831,-2.164 6.33,1.15 10.388,-6.523c3.374,-6.378 7.334,4.914 -0.673,8.963c-4.318,2.183 -5.832,1.775 -5.866,1.78Z" style="fill:#fff;fill-opacity:0.96;"/><path d="M47.5,0l5,0c-0.458,0.417 0.243,1.217 -1.926,1.754c-0.574,0.142 -1.059,0.022 -1.148,0c-2.169,-0.537 -1.467,-1.337 -1.926,-1.755Z" style="fill:#181818;fill-opacity:0.01;"/></g></svg>