<?xml version="1.0" encoding="UTF-8" standalone="no"?><!DOCTYPE svg PUBLIC "-//W3C//DTD SVG 1.1//EN" "http://www.w3.org/Graphics/SVG/1.1/DTD/svg11.dtd"><svg width="100%" height="100%" viewBox="0 0 64 64" version="1.1" xmlns="http://www.w3.org/2000/svg" xmlns:xlink="http://www.w3.org/1999/xlink" xml:space="preserve" xmlns:serif="http://www.serif.com/" style="fill-rule:evenodd;clip-rule:evenodd;stroke-linejoin:round;stroke-miterlimit:2;"><g id="Background"><path d="M26.999,36.516c0.859,-9.818 1.657,-9.602 2.053,-14.062c0.583,-6.563 0.948,-6.437 0.998,-7c0.085,-0.956 1.015,-11.446 1.495,-11.908c0.408,-0.392 0.497,-0.242 7.044,0.632c1.827,0.244 1.438,4.787 0.981,6.346c-0.51,1.739 -6.903,49.726 -7.115,49.93c-0.408,0.392 -0.497,0.241 -7.044,-0.632c-2.973,-0.397 0.141,-11.173 1.588,-23.305Z" style="fill:#fff;fill-opacity:0.99;"/><path d="M63.999,30.5l0,3c-0.339,0.277 -0.955,-0.048 -1.294,0.229c-3.227,2.639 -13.631,15.607 -15.944,13.45c-3.937,-3.67 -5.772,-4.588 -1.971,-8.389c4.695,-4.695 8.3,-5.406 3.563,-10.143c-2.56,-2.56 -2.518,-2.466 -5.005,-5.005c-2.585,-2.639 3.377,-9.394 6.879,-5.867c0.995,1.002 12.136,12.221 12.482,12.492c0.344,0.269 0.946,-0.036 1.29,0.233Z" style="fill:#fff;fill-opacity:0.97;"/><path d="M0,33.5l0,-3c0.345,-0.269 0.948,0.04 1.294,-0.229c0.345,-0.269 11.486,-11.491 12.482,-12.494c3.51,-3.535 9.462,3.225 6.877,5.865c-2.49,2.543 -2.449,2.45 -5.005,5.005c-4.739,4.739 -1.132,5.45 3.562,10.143c3.8,3.8 1.97,4.718 -1.966,8.393c-2.312,2.159 -12.738,-10.837 -15.946,-13.458c-0.34,-0.278 -0.958,0.053 -1.298,-0.225Z" style="fill:#fff;fill-opacity:0.98;"/></g></svg>