<?xml version="1.0" encoding="UTF-8" standalone="no"?><!DOCTYPE svg PUBLIC "-//W3C//DTD SVG 1.1//EN" "http://www.w3.org/Graphics/SVG/1.1/DTD/svg11.dtd"><svg width="100%" height="100%" viewBox="0 0 192 192" version="1.1" xmlns="http://www.w3.org/2000/svg" xmlns:xlink="http://www.w3.org/1999/xlink" xml:space="preserve" xmlns:serif="http://www.serif.com/" style="fill-rule:evenodd;clip-rule:evenodd;stroke-linejoin:round;stroke-miterlimit:2;"><g id="Background"><path d="M172.882,61.896c-3.044,1.866 -7.504,5.609 -8.128,6.133c-0.977,0.82 -10.794,9.059 -12.344,10.094c-8.885,5.933 -8.828,7.132 -10.5,8.25c-8.98,6.004 -8.775,7.096 -10.5,8.249c-11.613,7.759 -14.127,13.725 -24.558,10.057c-3.914,-1.376 -42.861,-32.948 -43.603,-33.682c-2.425,-2.398 -10.168,3.742 -10.82,6.676c-1.624,7.301 1.199,9.592 1.991,11.175c1.611,3.219 16.833,29.301 17.348,29.911c8.536,10.114 13.115,4.301 22.207,-0.214c11.606,-5.764 23.226,8.208 25.696,13.052c2.556,5.012 3.076,4.676 3.751,6c4.893,9.598 12.907,21.716 -2.269,29.323c-23.627,11.844 -44.494,1.463 -47.926,-0.244c-14.086,-7.007 -18.67,-14.236 -22.381,-18.016c-6.879,-7.006 -29.369,-48.26 -29.801,-49.125c-16.421,-32.878 -9.9,-65.098 18.169,-80.724c15.234,-8.481 25.226,18.632 28.974,24.868c0.472,0.786 0.777,0.691 70.938,0.691c35.611,-0 36.933,-0.92 42.491,5.718c1.524,1.821 1.32,2.143 1.32,57.539c-0,25.708 1.265,27.779 -6.906,31.837c-2.967,1.474 -3.166,0.871 -41.405,0.756c-8.379,-0.025 -4.04,-7.024 -3.859,-7.205c2.561,-2.562 37.505,0.486 41.954,-1.701c2.65,-1.303 0.898,-19.809 1.484,-68.666c0.137,-0.507 0.274,-1.014 0.411,-1.521c-0.274,-0.129 0.035,-0.746 -0.239,-0.875c-0.242,-0.114 -1.39,1.502 -1.493,1.647l-151.879,-0.78c-0.655,19.817 5.988,31.064 12.707,43.331c0.737,1.345 1.119,1.111 9.725,16.517c12.825,22.959 14.791,21.591 16.69,24.375c2.417,3.543 2.944,2.966 6.033,6.006c11.171,10.994 24.859,12.123 27.243,12.32c3.742,0.309 3.69,0.514 7.448,0.001c1.662,-0.227 16.112,-2.199 19.695,-7.2c2.686,-3.749 -13.143,-33.479 -21.997,-30.288c-8.854,3.191 -12.269,11.704 -27.699,3.99c-5.149,-2.574 -10.348,-12.705 -16.066,-23.112c-6.334,-11.528 -16.72,-21.094 -8.716,-36.217c5.404,-10.21 22.929,-5.575 13.017,-25.57c-5.725,-11.549 -11.022,-21.2 -16.54,-18.311c-8.777,4.595 -16.59,15.573 -18.361,20.587c-0.371,1.051 -2.416,6.84 -3.18,13.571l151.879,0.78l-4.11,-7.784c-1.024,-2.179 -1.748,-0.937 -6.398,-0.936c-84.57,0.011 -84.515,-0.122 -89.993,-0.016c-2.157,0.042 -1.068,1.147 -1.464,2.728c-0.844,3.364 -0.203,3.518 -1.752,6.636c-1.306,2.629 0.858,2.23 16.092,14.941c0.587,0.489 5.529,4.614 7.554,5.844c2.103,1.277 14.436,11.18 15.674,12.174c5.628,4.519 12.482,-4.841 15.854,-7.105c0.397,-0.266 4.075,-2.737 4.896,-3.418c8.006,-6.635 7.969,-6.65 8.604,-7.081c5.836,-3.954 26.946,-21.674 30.931,-23.767l4.11,7.784Z" style="fill:#fff;fill-opacity:0.99;"/></g></svg>