<?xml version="1.0" encoding="UTF-8" standalone="no"?><!DOCTYPE svg PUBLIC "-//W3C//DTD SVG 1.1//EN" "http://www.w3.org/Graphics/SVG/1.1/DTD/svg11.dtd"><svg width="100%" height="100%" viewBox="0 0 96 96" version="1.1" xmlns="http://www.w3.org/2000/svg" xmlns:xlink="http://www.w3.org/1999/xlink" xml:space="preserve" xmlns:serif="http://www.serif.com/" style="fill-rule:evenodd;clip-rule:evenodd;stroke-linejoin:round;stroke-miterlimit:2;"><g id="Background"><path d="M52.491,88.002c-10.613,-0.11 -15.336,1.506 -30.703,-8.838c-0.82,-0.552 -9.033,-8.895 -11.608,-16.579c-11.356,-33.878 18.284,-64.185 53.346,-52.146c3.994,1.371 13.931,8.818 15.638,11.35c1.953,2.896 14.485,17.984 6.397,41.737c-1.553,4.562 -9.124,15.663 -19.205,20.693c-5.874,2.931 -12.721,3.662 -13.864,3.784l-34.473,-49.581c-10.298,39.134 41.884,57.779 59.035,21.875c4.567,-9.56 5.15,-46.245 -35.501,-43.35c-1.876,0.134 -15.099,4.711 -20.613,14.791c-1.704,3.116 -2.733,6.132 -2.921,6.684l34.473,49.581Z" style="fill:#fff;fill-opacity:0.98;"/><path d="M43.974,48.487c0.209,-17.451 -0.046,-20.697 0.107,-23.092c0.111,-1.74 6.534,-1.851 7.436,-0.913c1.541,1.604 0.51,1.915 0.518,7.017c0.016,11.069 -0.003,11.045 0.002,12.006c0.015,3.129 1.22,3.318 13.172,15.284c3.499,3.503 -3.23,9.458 -5.864,6.878c-15.518,-15.2 -15.031,-15.686 -15.37,-17.18Z" style="fill:#fff;fill-opacity:0.99;"/></g></svg>