<?xml version="1.0" encoding="UTF-8" standalone="no"?><!DOCTYPE svg PUBLIC "-//W3C//DTD SVG 1.1//EN" "http://www.w3.org/Graphics/SVG/1.1/DTD/svg11.dtd"><svg width="100%" height="100%" viewBox="0 0 96 96" version="1.1" xmlns="http://www.w3.org/2000/svg" xmlns:xlink="http://www.w3.org/1999/xlink" xml:space="preserve" xmlns:serif="http://www.serif.com/" style="fill-rule:evenodd;clip-rule:evenodd;stroke-linejoin:round;stroke-miterlimit:2;"><g id="Background"><path d="M74.006,11.486c-1.289,6.088 -2.675,5.445 -5.448,11.049c-1.401,2.831 -7.768,9.427 -3.109,9.45c5.57,0.027 12.15,-1.2 12.483,2.485c0.349,3.853 -1.594,4.485 -20.286,23.177c-2.32,2.32 -28.814,28.814 -29.008,28.999c-0.513,0.49 -9.897,6.344 -5.208,-7.174c1.932,-5.57 11.488,-24.704 9.288,-25.395c-1.24,-0.389 -14.019,1.03 -14.536,-1.47c-1.139,-5.508 8.278,-16.956 19.258,-39.142c2.589,-5.231 4.43,-5.36 5.019,-5.401c9.362,-0.654 26.697,-0.145 29.017,-0.077c2.569,0.075 2.015,1.006 2.529,3.499l-38.598,55.998c0.474,0.508 -0.692,0.613 -0.227,1.111c0.121,0.13 0.158,-0.017 2.204,-0.24c1.766,-2.422 4.108,-5.633 25.972,-26.998c0.287,-0.28 3.543,-2.577 1.999,-3.459c-1.342,-0.767 -12.797,3.088 -11.196,-4.467c0.788,-3.721 12.314,-18.477 9.563,-19.36c-0.563,-0.181 -7.011,0.121 -16.218,-0.104c-1.769,-0.043 -2.812,-0.069 -12.279,18.391c-4.614,8.997 -9.609,15.598 -6.94,15.58c9.815,-0.066 16.134,-2.781 12.959,6.459c-2.34,6.81 -2.492,6.667 -5.837,13.088l38.598,-55.998l-38.598,55.998c-0.122,0.227 -4.606,8.566 0.182,3.216c1.043,-1.166 0.885,-1.156 1.795,-2.345c-2.046,0.223 -2.083,0.369 -2.204,0.24c-0.465,-0.498 0.701,-0.603 0.227,-1.111l38.598,-55.998Z" style="fill:#fff;fill-opacity:0.97;"/></g></svg>