<?xml version="1.0" encoding="UTF-8" standalone="no"?><!DOCTYPE svg PUBLIC "-//W3C//DTD SVG 1.1//EN" "http://www.w3.org/Graphics/SVG/1.1/DTD/svg11.dtd"><svg width="100%" height="100%" viewBox="0 0 96 96" version="1.1" xmlns="http://www.w3.org/2000/svg" xmlns:xlink="http://www.w3.org/1999/xlink" xml:space="preserve" xmlns:serif="http://www.serif.com/" style="fill-rule:evenodd;clip-rule:evenodd;stroke-linejoin:round;stroke-miterlimit:2;"><g id="Background"><path d="M8,56.491c0.114,-15.711 -0.08,-16.1 6.05,-26.241c6.014,-9.95 9.762,-10.153 13.292,-12.959c8.879,-7.06 37.958,-8.499 37.904,2.205c-0.046,9.09 -11.82,1.646 -22.812,3.527c-24.055,4.117 -31.926,36.246 -13.782,50.264c1.481,1.144 37.301,1.078 38.696,0c12.568,-9.709 8.337,-25.326 13.033,-27.094c12.926,-4.864 8.864,22.109 -4.17,35.014c-2.831,2.803 -3.393,3.36 -49.72,2.752c-7.112,-0.093 -16.849,-12.21 -18.492,-27.469Z" style="fill:#fff;fill-opacity:0.99;"/><path d="M49.482,60.004c-15.416,0.002 -9.586,-15.303 -4.046,-15.849c7.237,-0.713 6.627,-2.32 12.811,-6.093c0.817,-0.499 0.307,-1.102 9.539,-7.223c13.543,-8.979 14.104,4.195 9.426,7.322c-20.703,13.837 -20.535,14.311 -21.63,17.374c-1.239,3.465 -5.509,4.347 -6.101,4.469Z" style="fill:#fff;fill-opacity:0.99;"/></g></svg>