<?xml version="1.0" encoding="UTF-8" standalone="no"?><!DOCTYPE svg PUBLIC "-//W3C//DTD SVG 1.1//EN" "http://www.w3.org/Graphics/SVG/1.1/DTD/svg11.dtd"><svg width="100%" height="100%" viewBox="0 0 90 90" version="1.1" xmlns="http://www.w3.org/2000/svg" xmlns:xlink="http://www.w3.org/1999/xlink" xml:space="preserve" xmlns:serif="http://www.serif.com/" style="fill-rule:evenodd;clip-rule:evenodd;stroke-linejoin:round;stroke-miterlimit:2;"><g id="Background"><path d="M41.329,31.408c-2.823,11.853 -7.051,24.059 -7.764,26.119c-1.217,3.515 -5.564,3.023 -6.784,0.82c-3.668,-6.622 -6.051,-20.144 -9.558,-12.991c-2.248,4.585 -14.21,3.389 -14.74,0.149c-0.162,-0.989 0.344,-3.387 3.04,-3.518c4.086,-0.198 5.015,1.064 6.909,-2.53c1.258,-2.387 11.853,-9.354 15.494,4.883c0.084,0.33 2.121,5.898 2.454,0.128c0.182,-3.157 9.867,-32.267 10.793,-35.051c2.246,-6.751 7.407,-2.95 7.608,1.048c1.115,22.158 1.904,22.076 2,24.001c0.092,1.844 1.013,20.26 1.784,23.013c0.56,2 -0.858,10.133 1.547,8.693c0.794,-0.475 -0.71,-1.203 3.932,-10.881c2.359,-4.918 3.692,-13.185 7.479,-13.303c6.019,-0.187 6.572,1.548 11.262,-2.148c0.585,-0.461 10.234,-3.549 10.234,4.666c-0.001,12.613 -13.409,3.489 -13.551,3.484c-7.879,-0.315 -5.814,3.289 -9.246,10.372c-4.682,9.663 -8.061,19.435 -8.659,21.164c-1.46,4.224 -1.777,5.2 -6.168,4.289c-3.167,-0.657 -3.028,-25.19 -5.855,-51.332c-0.148,-5.94 0.453,-6.593 -0.808,-6.627c-0.397,-0.011 -1.323,5.101 -1.404,5.552Z" style="fill:#fff;fill-opacity:0.98;"/></g></svg>