<?xml version="1.0" encoding="UTF-8" standalone="no"?><!DOCTYPE svg PUBLIC "-//W3C//DTD SVG 1.1//EN" "http://www.w3.org/Graphics/SVG/1.1/DTD/svg11.dtd"><svg width="100%" height="100%" viewBox="0 0 192 192" version="1.1" xmlns="http://www.w3.org/2000/svg" xmlns:xlink="http://www.w3.org/1999/xlink" xml:space="preserve" xmlns:serif="http://www.serif.com/" style="fill-rule:evenodd;clip-rule:evenodd;stroke-linejoin:round;stroke-miterlimit:2;"><g id="Background"><path d="M19.125,0l17.25,0c3.502,4.816 5.478,4.102 5.543,10.875c0.303,31.419 -1.373,33.478 1.96,33.485c6.299,0.012 75.155,0.142 78.743,-0.003c2.228,-0.09 3.054,-1.594 15.221,-13.765c2.338,-2.339 29.017,-29.024 29.248,-29.213c0.766,-0.628 0.728,-0.607 1.285,-1.379l9,-0c1.492,2.052 1.723,1.766 3.543,3.583c7.915,7.906 7.411,8.371 11.082,11.042l-0,9c-0.445,0.321 -0.685,-0.005 -1.079,0.779c-0.314,0.623 -0.569,0.714 -0.678,0.828c-1.409,1.47 -13.114,13.681 -18.068,17.926c0.013,0.484 -0.454,0.231 -0.441,0.751c0.002,0.057 0.008,0.301 0.474,0.528c0.206,0.1 0.481,-0.063 0.687,0.038c9.371,-0.24 12.695,-1.075 17.348,3.793c0.856,0.895 0.766,0.894 1.755,1.609l0,137.25c-0.296,0.179 -0.75,-0.365 -1.55,0.938c-0.917,1.495 -0.885,1.466 -2.387,2.387c-1.304,0.8 -0.758,1.253 -0.938,1.549l-167.25,0c-6.483,-3.718 -10.583,-3.071 -16.087,-12.188c-0.798,-1.322 -0.927,-1.143 -1.699,-2.543c-0.92,-1.668 -0.358,-1.81 -1.214,-3.575c-0.174,-0.359 -0.701,-0.459 -0.875,-0.818l0,-153.75c3.508,-6.055 2.356,-6.81 7.335,-11.79c4.978,-4.978 5.733,-3.827 11.79,-7.335l95.979,51.526c-16.114,0.496 -71.817,-0.462 -72.792,0.539c-1.032,1.06 0.14,85.389 -0.635,87.829c-3.527,11.107 -14.582,6.716 -20.37,8.044c-13.449,3.085 -18.046,19.998 -11.783,27.823c4.372,5.462 4.162,6.395 13.285,9.302c0.92,0.293 0.933,0.261 141.065,0.261c18.865,-0 21.423,1.007 21.449,-4.2c0.051,-10.206 0.622,-125.209 -0.28,-127.578c-0.562,-1.477 -0.891,-2.338 -19.665,-1.903c-1.644,0.038 -1.734,0.341 -32.134,30.606c-8.078,8.042 -59.286,3.262 -64.714,4.766c-1.321,0.366 -1.098,0.973 -1.097,28.109c0,4.27 -1.621,6.395 2.691,6.361c2.479,-0.02 72.305,0.043 72.834,-0.037c3.182,-0.478 -1.836,-18.441 3.631,-19.309c5.016,-0.797 4.086,2.884 4.086,23.485c-0,29.825 0.453,30.373 -2.435,33.125c-2.011,1.916 -2.406,1.65 -44.365,1.65c-24.577,-0 -27.901,0.975 -27.23,-4.821c0.568,-4.903 23.304,-1.106 25.044,-2.893c0.389,-0.399 0.392,-4.195 0.393,-4.561c0.016,-18.943 0.056,-19.11 -0.407,-19.552c-0.394,-0.376 -4.875,-0.381 -5.3,-0.382c-28.223,-0.033 -28.279,0.113 -28.545,0.388c-0.902,0.929 -0.105,41.193 -0.465,45.09c-0.197,2.139 -3.868,3.8 -5.993,1.249c-1.427,-1.713 -0.265,-79.544 -0.666,-86.861c-0.153,-2.789 -12.698,1.196 -12.714,-4.442c-0.014,-4.909 2.427,-4.015 23.634,-4.015c32.541,0 33.385,0.229 33.504,-1.247c1.496,-18.625 3.554,-19.39 10.697,-25.51c-0.241,-0.439 -0.481,-0.878 -0.722,-1.316l-95.979,-51.526l-12.534,147.296c1.003,0.475 0.995,0.55 1.083,0.513c0.071,-0.03 -0.012,-0.676 0.933,-1.212c2.127,-1.205 4.548,-3.27 5.995,-3.773c9.604,-3.339 11.943,-2.347 17.263,-2.474c3.908,-0.093 2.773,-6.452 2.773,-8.725c0.004,-122.603 0.062,-122.758 -0.654,-123.633c-1.753,-2.144 -22.095,-4.742 -26.813,14.15c-1.155,4.623 -0.116,84.363 -0.581,125.155l12.534,-147.296l143.468,36.907c-8.757,-8.754 -9.823,-10.616 -11.36,-9.402c-0.102,0.081 -28.288,28.273 -30.747,30.732c-3.121,3.122 -1.181,3.754 1.92,6.856c6.733,6.735 8.282,9.157 9.861,7.905c0.066,-0.052 28.288,-28.275 30.747,-30.734c2.362,-2.362 1.916,-3.021 -0.421,-5.358l-143.468,-36.907l124.901,139.125c-0.103,-10.437 -0.271,-10.433 -0.369,-10.529c-0.682,-0.674 -32.714,-0.623 -33.844,-0.041c-0.738,0.379 -0.74,23.398 -0.001,24.136c1.229,1.228 29.726,0.495 32.31,0.429c2.577,-0.066 1.904,-3.325 1.904,-13.994l-124.901,-139.125l151.282,8.406c-2.702,2.703 -3.905,3.375 -1.171,6.108c9.972,9.972 10.029,10.287 11.208,10.043c0.048,-0.01 4.746,-3.715 4.77,-5.428c0.032,-2.214 -0.924,-1.764 -8.376,-9.218c-2.888,-2.889 -3.551,-4.366 -6.431,-1.506l-151.282,-8.406l148.281,31.344c1.144,1.144 1.096,1.123 2.275,2.275c1.766,1.726 5.191,-3.112 4.517,-3.87c-0.928,-1.043 -10.756,-12.084 -12.574,-12.108c-0.804,-0.01 -2.273,1.796 -3.243,2.79c-1.366,1.4 0.272,2.159 9.025,10.912l-148.281,-31.344l93.377,75.364c-0.193,6.726 3.396,3.517 10.113,3.468c1.736,-0.013 2.916,0.434 2.191,-1.167c-0.279,-0.617 -0.494,-0.351 -6.058,-5.914c-4.877,-4.877 -5.223,-4.936 -5.561,-4.476c-0.384,0.524 0.183,0.572 -0.686,8.088l-93.377,-75.364Z" style="fill:#fff;fill-opacity:0.99;"/><path d="M115.104,51.526c1.079,0.525 1.16,0.462 1.162,0.566c0.008,0.29 -0.448,0.461 -0.441,0.751c-0.241,-0.439 -0.481,-0.878 -0.722,-1.316Z" style="fill:#5a5a5a;fill-opacity:0.13;"/><path d="M172.175,43.158c0.24,0.439 0.481,0.877 0.721,1.316c-0.206,-0.1 -0.481,0.063 -0.687,-0.038c-0.466,-0.227 -0.473,-0.471 -0.474,-0.528c-0.014,-0.52 0.453,-0.267 0.441,-0.751Z" style="fill:#5a5a5a;fill-opacity:0.13;"/></g></svg>