<?xml version="1.0" encoding="UTF-8" standalone="no"?><!DOCTYPE svg PUBLIC "-//W3C//DTD SVG 1.1//EN" "http://www.w3.org/Graphics/SVG/1.1/DTD/svg11.dtd"><svg width="100%" height="100%" viewBox="0 0 96 96" version="1.1" xmlns="http://www.w3.org/2000/svg" xmlns:xlink="http://www.w3.org/1999/xlink" xml:space="preserve" xmlns:serif="http://www.serif.com/" style="fill-rule:evenodd;clip-rule:evenodd;stroke-linejoin:round;stroke-miterlimit:2;"><g id="Background"><path d="M83.68,29.194c-3.609,-3.834 -4.317,-6.233 -8.018,-2.531c-12.5,12.504 -14.08,15.066 -15.903,13.514c-3.581,-3.047 -4.293,-5.341 -8.108,-1.527c-12.202,12.2 -12.928,14.499 -15.861,11.558c-3.115,-3.123 -3.992,-3.695 -7.135,-0.552c-8.053,8.052 -8.912,10.421 -12.318,7.006c-0.93,-0.932 -4.071,-3.206 -2.516,-4.905c1.294,-1.414 11.918,-13.025 16.947,-16.927c3.616,-2.806 4.644,7.414 9.562,2.499c6.046,-6.041 6.675,-5.443 11.498,-12.545c3.621,-5.332 6.346,6.7 10.515,2.553c8.869,-8.823 9.145,-8.764 9.147,-9.838c0.005,-1.989 -8.77,-6.822 -2.037,-7.302c12.527,-0.894 21.125,-6.92 17.787,5.213c-0.172,0.626 -0.004,0.558 -1.208,8.027c-0.67,4.161 0.686,5.578 -2.352,5.756Z" style="fill:#fff;fill-opacity:0.98;"/><path d="M83.966,46.5c-0,36.333 0.276,37.282 -1.361,37.419c-0.53,0.044 -6.115,0.513 -6.523,-1.315c-0.154,-0.69 0.082,-32.667 -0.116,-40.099c-0.101,-3.819 7.804,-3.115 7.953,-1.11c0.126,1.697 -0.08,3.407 0.047,5.104Z" style="fill:#fff;"/><path d="M60.034,73.5c0,-21.45 -0.118,-24.473 0.449,-25.017c1.015,-0.975 7.642,-1.375 7.552,2.022c-0.18,6.801 0.007,30.181 -0.116,32.099c-0.118,1.852 -5.993,1.359 -6.523,1.315c-2.049,-0.172 -1.374,-8.242 -1.361,-10.419Z" style="fill:#fff;"/><path d="M51.966,73.5c0.047,8.124 1.447,12.528 -6.414,10.517c-1.646,-0.421 -1.505,-0.756 -1.517,-2.505c-0.154,-23.33 -0.94,-23.586 0.448,-25.03c0.792,-0.824 7.007,-1.008 7.436,0.913c0.065,0.292 0.047,7.187 0.047,16.104Z" style="fill:#fff;"/><path d="M35.966,72.5c0.02,3.849 0.655,11.211 -1.361,11.419c-1.301,0.134 -6.545,1.234 -6.569,-2.406c-0.11,-16.662 -0.127,-17.307 1.361,-17.431c0.489,-0.041 5.246,-0.44 6.121,0.402c1.216,1.169 0.405,1.385 0.449,8.017Z" style="fill:#fff;"/><path d="M19.966,76.5c-0.413,6.465 0.316,7.278 -1.361,7.419c-0.53,0.044 -6.405,0.537 -6.523,-1.315c-0.662,-10.357 0.469,-10.452 1.315,-10.523c0.489,-0.041 5.246,-0.44 6.121,0.402c0,0 0.413,3.696 0.449,4.017Z" style="fill:#fff;"/></g></svg>