<?xml version="1.0" encoding="UTF-8"?>
<svg version="1.1" xmlns="http://www.w3.org/2000/svg" width="500" height="500">
<path d="M0 0 C48.84 0 97.68 0 148 0 C148.0928125 20.2640625 148.0928125 20.2640625 148.1875 40.9375 C148.21481201 45.16812256 148.24212402 49.39874512 148.27026367 53.75756836 C148.28381348 59.01281738 148.28381348 59.01281738 148.28633118 61.49024963 C148.29087124 63.18286013 148.30127956 64.87546232 148.31672668 66.56800842 C148.45132822 82.12428087 146.94939026 96.82944539 141.8125 111.625 C141.51206787 112.50397949 141.21163574 113.38295898 140.90209961 114.28857422 C134.92946372 131.15700662 125.24037744 145.01645679 113 158 C112.4225 158.64195312 111.845 159.28390625 111.25 159.9453125 C87.15968722 185.64881587 51.68430842 201.57320584 18.7331543 212.09912109 C15.33468731 213.18615825 12.16241441 214.35348963 9 216 C9.61705811 216.65464233 9.61705811 216.65464233 10.24658203 217.32250977 C19.28441874 226.91283968 28.30213609 236.52129686 37.28662109 246.16162109 C40.16922927 249.25453069 43.0531279 252.34623542 45.9375 255.4375 C46.51258301 256.05383301 47.08766602 256.67016602 47.68017578 257.30517578 C51.94699935 261.87617836 56.22204093 266.43941963 60.5 271 C67.1002515 278.03629392 73.68608349 285.08591067 80.26611328 292.14111328 C82.59326099 294.63603057 84.92119908 297.13020951 87.24926758 299.62426758 C88.41202755 300.87004709 89.57462646 302.11597695 90.73706055 303.36206055 C93.72506447 306.56478138 96.71575622 309.76492689 99.7109375 312.9609375 C118 332.48764208 118 332.48764208 118 334 C95.82539079 334.16355391 73.65088109 334.28697696 51.47579098 334.3626852 C41.17937489 334.398773 30.88333367 334.4479695 20.5871582 334.52807617 C11.61252118 334.59786765 2.63815565 334.64301258 -6.3367452 334.65861946 C-11.0886343 334.66774199 -15.83974674 334.68916559 -20.5913868 334.7401104 C-25.06574635 334.7876928 -29.53901086 334.80226732 -34.0135994 334.79175377 C-35.65391559 334.79367652 -37.29426911 334.80756161 -38.93436623 334.83443832 C-51.29867791 335.02708413 -51.29867791 335.02708413 -55.45513725 332.51783943 C-57.23688379 330.7698214 -58.59852743 329.0582072 -60 327 C-61.07132649 325.76035435 -62.15358506 324.53001225 -63.25 323.3125 C-64.11238281 322.31283203 -64.11238281 322.31283203 -64.9921875 321.29296875 C-67.41072612 318.53094118 -69.88891376 315.82602288 -72.375 313.125 C-77.28815766 307.7838465 -82.15379455 302.40204264 -87 297 C-88.49971128 295.33307353 -89.99971321 293.66640851 -91.5 292 C-103.5 278.66666667 -115.5 265.33333333 -127.5 252 C-128.2321875 251.18660156 -128.964375 250.37320313 -129.71875 249.53515625 C-131.32348436 247.75181276 -132.92759475 245.96790769 -134.53125 244.18359375 C-135.3459375 243.27738281 -136.160625 242.37117187 -137 241.4375 C-137.7425 240.61121094 -138.485 239.78492188 -139.25 238.93359375 C-140.14940606 237.93983036 -141.05224029 236.94775971 -142 236 C-142.09529612 232.98649762 -142.12551904 229.99595894 -142.11352539 226.98217773 C-142.11367142 226.03593536 -142.11381744 225.08969299 -142.1139679 224.11477661 C-142.11326836 220.97102608 -142.10547409 217.82733399 -142.09765625 214.68359375 C-142.09579221 212.51025932 -142.09436824 210.33692448 -142.09336853 208.16358948 C-142.08954221 202.43098805 -142.07971097 196.69841177 -142.06866455 190.96582031 C-142.05845287 185.12109721 -142.05387143 179.27637007 -142.04882812 173.43164062 C-142.0380888 161.954416 -142.02101102 150.47721009 -142 139 C-141.42960212 138.99038648 -140.85920424 138.98077295 -140.27152157 138.97086811 C-134.26682 138.8686058 -128.26228821 138.75879733 -122.25779724 138.64485168 C-120.02498231 138.60343489 -117.79213232 138.56386173 -115.55924988 138.52626038 C-100.21535071 138.26628162 -85.1189802 137.88041267 -70 135 C-69.22897949 134.85691406 -68.45795898 134.71382812 -67.66357422 134.56640625 C-53.37514476 131.81523687 -39.02679802 127.38295203 -27 119 C-25.84951172 118.19949219 -25.84951172 118.19949219 -24.67578125 117.3828125 C-12.37909074 108.32209318 -3.90073295 96.16814573 -1 81 C-0.73121755 78.21549191 -0.68947206 75.45248476 -0.68115234 72.65625 C-0.67099909 71.85239868 -0.66084583 71.04854736 -0.6503849 70.22033691 C-0.6200205 67.6468952 -0.60267151 65.07356248 -0.5859375 62.5 C-0.56898033 60.89973018 -0.55116122 59.29946926 -0.5324707 57.69921875 C-0.46955854 51.7995811 -0.42326507 45.89977566 -0.375 40 C-0.25125 26.8 -0.1275 13.6 0 0 Z " fill="#FFFFFF" transform="translate(320,149)"/>
<path d="M0 0 C95.04 0 190.08 0 288 0 C288 43.56 288 87.12 288 132 C241.14 132 194.28 132 146 132 C146 177.54 146 223.08 146 270 C97.82 270 49.64 270 0 270 C0 180.9 0 91.8 0 0 Z " fill="#FFFFFF" transform="translate(32,17)"/>
</svg>
